STARTFONT 2.1
FONT Edges
SIZE 10 75 75
FONTBOUNDINGBOX 6 13 0 -2
STARTPROPERTIES 24
FONTNAME_REGISTRY ""
FOUNDRY "Misc"
FAMILY_NAME "Outcast"
WEIGHT_NAME "Medium"
SLANT "R"
SETWIDTH_NAME "Normal"
ADD_STYLE_NAME ""
PIXEL_SIZE 10
POINT_SIZE 100
RESOLUTION_X 75
RESOLUTION_Y 75
SPACING "C"
AVERAGE_WIDTH 60
CHARSET_REGISTRY "ISO8859"
CHARSET_ENCODING "1"
COPYRIGHT "Bugger off with the Copyright"
WEIGHT 10
RESOLUTION 103
X_HEIGHT 10
QUAD_WIDTH 5
_XMBDFED_INFO "Edited with xmbdfed 4.5."
DEFAULT_CHAR 45880
FONT_ASCENT 10
FONT_DESCENT 0
ENDPROPERTIES
CHARS 256
STARTCHAR char0
ENCODING 0
SWIDTH 576 0
DWIDTH 6 0
BBX 6 13 0 -2
BITMAP
00
00
00
00
00
00
00
00
00
00
00
00
00
ENDCHAR
STARTCHAR char1
ENCODING 1
SWIDTH 576 0
DWIDTH 6 0
BBX 6 13 0 -2
BITMAP
00
00
70
88
D8
88
F8
A8
88
70
00
00
00
ENDCHAR
STARTCHAR char2
ENCODING 2
SWIDTH 576 0
DWIDTH 6 0
BBX 6 13 0 -2
BITMAP
00
00
70
F8
A8
F8
88
D8
F8
70
00
00
00
ENDCHAR
STARTCHAR char3
ENCODING 3
SWIDTH 576 0
DWIDTH 6 0
BBX 6 13 0 -2
BITMAP
00
00
00
00
D8
F8
F8
70
20
00
00
00
00
ENDCHAR
STARTCHAR char4
ENCODING 4
SWIDTH 576 0
DWIDTH 6 0
BBX 6 13 0 -2
BITMAP
00
00
00
00
20
70
F8
70
20
00
00
00
00
ENDCHAR
STARTCHAR char5
ENCODING 5
SWIDTH 576 0
DWIDTH 6 0
BBX 6 13 0 -2
BITMAP
00
00
70
70
F8
F8
A8
20
70
00
00
00
00
ENDCHAR
STARTCHAR char6
ENCODING 6
SWIDTH 576 0
DWIDTH 6 0
BBX 6 13 0 -2
BITMAP
00
00
00
20
70
F8
F8
A8
70
00
00
00
00
ENDCHAR
STARTCHAR char7
ENCODING 7
SWIDTH 576 0
DWIDTH 6 0
BBX 6 13 0 -2
BITMAP
00
00
00
00
00
70
88
00
00
00
00
00
00
ENDCHAR
STARTCHAR char8
ENCODING 8
SWIDTH 576 0
DWIDTH 6 0
BBX 6 13 0 -2
BITMAP
00
00
00
00
30
48
80
00
00
00
00
00
00
ENDCHAR
STARTCHAR char9
ENCODING 9
SWIDTH 576 0
DWIDTH 6 0
BBX 6 13 0 -2
BITMAP
00
00
00
00
00
00
00
00
00
00
00
00
00
ENDCHAR
STARTCHAR char10
ENCODING 10
SWIDTH 576 0
DWIDTH 6 0
BBX 6 13 0 -2
BITMAP
00
00
00
00
00
00
00
00
00
00
00
00
00
ENDCHAR
STARTCHAR char11
ENCODING 11
SWIDTH 576 0
DWIDTH 6 0
BBX 6 13 0 -2
BITMAP
00
00
00
00
00
00
00
00
00
00
00
00
00
ENDCHAR
STARTCHAR char12
ENCODING 12
SWIDTH 576 0
DWIDTH 6 0
BBX 6 13 0 -2
BITMAP
00
00
00
00
00
00
00
00
00
00
00
00
00
ENDCHAR
STARTCHAR char13
ENCODING 13
SWIDTH 576 0
DWIDTH 6 0
BBX 6 13 0 -2
BITMAP
00
00
00
00
00
00
00
00
00
00
00
00
00
ENDCHAR
STARTCHAR char14
ENCODING 14
SWIDTH 576 0
DWIDTH 6 0
BBX 6 13 0 -2
BITMAP
00
00
00
00
60
60
60
00
00
00
00
00
00
ENDCHAR
STARTCHAR char15
ENCODING 15
SWIDTH 576 0
DWIDTH 6 0
BBX 6 13 0 -2
BITMAP
00
00
00
00
00
00
00
00
00
00
00
00
00
ENDCHAR
STARTCHAR char16
ENCODING 16
SWIDTH 576 0
DWIDTH 6 0
BBX 6 13 0 -2
BITMAP
00
00
00
00
00
00
00
00
00
00
00
00
00
ENDCHAR
STARTCHAR char17
ENCODING 17
SWIDTH 576 0
DWIDTH 6 0
BBX 6 13 0 -2
BITMAP
00
00
00
40
60
70
60
40
00
00
00
00
00
ENDCHAR
STARTCHAR char18
ENCODING 18
SWIDTH 576 0
DWIDTH 6 0
BBX 6 13 0 -2
BITMAP
00
00
00
10
30
70
30
10
00
00
00
00
00
ENDCHAR
STARTCHAR char19
ENCODING 19
SWIDTH 576 0
DWIDTH 6 0
BBX 6 13 0 -2
BITMAP
00
20
60
20
20
20
20
70
20
00
00
00
00
ENDCHAR
STARTCHAR char20
ENCODING 20
SWIDTH 576 0
DWIDTH 6 0
BBX 6 13 0 -2
BITMAP
00
50
50
50
50
50
00
50
50
00
00
00
00
ENDCHAR
STARTCHAR char21
ENCODING 21
SWIDTH 576 0
DWIDTH 6 0
BBX 6 13 0 -2
BITMAP
00
00
00
F0
D0
50
50
50
50
00
00
00
00
ENDCHAR
STARTCHAR char22
ENCODING 22
SWIDTH 576 0
DWIDTH 6 0
BBX 6 13 0 -2
BITMAP
00
00
70
90
60
90
60
90
E0
00
00
00
00
ENDCHAR
STARTCHAR char23
ENCODING 23
SWIDTH 576 0
DWIDTH 6 0
BBX 6 13 0 -2
BITMAP
00
00
00
00
00
00
00
F0
F0
00
00
00
00
ENDCHAR
STARTCHAR char24
ENCODING 24
SWIDTH 576 0
DWIDTH 6 0
BBX 6 13 0 -2
BITMAP
00
00
20
70
20
20
70
20
F0
00
00
00
00
ENDCHAR
STARTCHAR char25
ENCODING 25
SWIDTH 576 0
DWIDTH 6 0
BBX 6 13 0 -2
BITMAP
00
00
00
00
00
00
00
00
00
00
00
00
00
ENDCHAR
STARTCHAR char26
ENCODING 26
SWIDTH 576 0
DWIDTH 6 0
BBX 6 13 0 -2
BITMAP
00
00
00
00
20
20
70
20
00
00
00
00
00
ENDCHAR
STARTCHAR char27
ENCODING 27
SWIDTH 576 0
DWIDTH 6 0
BBX 6 13 0 -2
BITMAP
00
00
00
00
00
00
00
00
00
00
00
00
00
ENDCHAR
STARTCHAR char28
ENCODING 28
SWIDTH 576 0
DWIDTH 6 0
BBX 6 13 0 -2
BITMAP
00
00
00
00
80
80
F0
00
00
00
00
00
00
ENDCHAR
STARTCHAR char29
ENCODING 29
SWIDTH 576 0
DWIDTH 6 0
BBX 6 13 0 -2
BITMAP
00
00
00
00
50
F8
50
00
00
00
00
00
00
ENDCHAR
STARTCHAR char30
ENCODING 30
SWIDTH 576 0
DWIDTH 6 0
BBX 6 13 0 -2
BITMAP
00
00
00
00
20
70
F8
00
00
00
00
00
00
ENDCHAR
STARTCHAR char31
ENCODING 31
SWIDTH 576 0
DWIDTH 6 0
BBX 6 13 0 -2
BITMAP
00
00
00
00
F8
70
20
00
00
00
00
00
00
ENDCHAR
STARTCHAR char32
ENCODING 32
SWIDTH 576 0
DWIDTH 6 0
BBX 6 13 0 -2
BITMAP
00
00
00
00
00
00
00
00
00
00
00
00
00
ENDCHAR
STARTCHAR char33
ENCODING 33
SWIDTH 576 0
DWIDTH 6 0
BBX 6 13 0 -2
BITMAP
00
00
40
40
40
40
40
00
40
40
00
00
00
ENDCHAR
STARTCHAR char34
ENCODING 34
SWIDTH 576 0
DWIDTH 6 0
BBX 6 13 0 -2
BITMAP
00
00
50
50
00
00
00
00
00
00
00
00
00
ENDCHAR
STARTCHAR char35
ENCODING 35
SWIDTH 576 0
DWIDTH 6 0
BBX 6 13 0 -2
BITMAP
00
00
00
00
50
F8
50
F8
50
00
00
00
00
ENDCHAR
STARTCHAR char36
ENCODING 36
SWIDTH 576 0
DWIDTH 6 0
BBX 6 13 0 -2
BITMAP
00
00
20
20
F0
A0
F0
30
F0
20
20
00
00
ENDCHAR
STARTCHAR char37
ENCODING 37
SWIDTH 576 0
DWIDTH 6 0
BBX 6 13 0 -2
BITMAP
00
00
00
00
80
90
20
40
90
10
00
00
00
ENDCHAR
STARTCHAR char38
ENCODING 38
SWIDTH 576 0
DWIDTH 6 0
BBX 6 13 0 -2
BITMAP
00
00
00
40
A0
A0
40
B0
A0
70
00
00
00
ENDCHAR
STARTCHAR char39
ENCODING 39
SWIDTH 576 0
DWIDTH 6 0
BBX 6 13 0 -2
BITMAP
00
00
00
20
40
00
00
00
00
00
00
00
00
ENDCHAR
STARTCHAR char40
ENCODING 40
SWIDTH 576 0
DWIDTH 6 0
BBX 6 13 0 -2
BITMAP
00
00
10
20
40
40
40
40
40
20
10
00
00
ENDCHAR
STARTCHAR char41
ENCODING 41
SWIDTH 576 0
DWIDTH 6 0
BBX 6 13 0 -2
BITMAP
00
00
80
40
20
20
20
20
20
40
80
00
00
ENDCHAR
STARTCHAR char42
ENCODING 42
SWIDTH 576 0
DWIDTH 6 0
BBX 6 13 0 -2
BITMAP
00
00
00
00
90
60
F0
60
90
00
00
00
00
ENDCHAR
STARTCHAR char43
ENCODING 43
SWIDTH 576 0
DWIDTH 6 0
BBX 6 13 0 -2
BITMAP
00
00
00
00
40
40
E0
40
40
00
00
00
00
ENDCHAR
STARTCHAR char44
ENCODING 44
SWIDTH 576 0
DWIDTH 6 0
BBX 6 13 0 -2
BITMAP
00
00
00
00
00
00
00
00
00
40
80
00
00
ENDCHAR
STARTCHAR char45
ENCODING 45
SWIDTH 576 0
DWIDTH 6 0
BBX 6 13 0 -2
BITMAP
00
00
00
00
00
00
F0
00
00
00
00
00
00
ENDCHAR
STARTCHAR char46
ENCODING 46
SWIDTH 576 0
DWIDTH 6 0
BBX 6 13 0 -2
BITMAP
00
00
00
00
00
00
00
00
40
40
00
00
00
ENDCHAR
STARTCHAR char47
ENCODING 47
SWIDTH 576 0
DWIDTH 6 0
BBX 6 13 0 -2
BITMAP
00
00
00
10
10
20
20
40
40
80
80
00
00
ENDCHAR
STARTCHAR char48
ENCODING 48
SWIDTH 576 0
DWIDTH 6 0
BBX 6 13 0 -2
BITMAP
00
00
00
F0
90
B0
D0
90
90
F0
00
00
00
ENDCHAR
STARTCHAR char49
ENCODING 49
SWIDTH 576 0
DWIDTH 6 0
BBX 6 13 0 -2
BITMAP
00
00
00
60
20
20
20
20
20
20
00
00
00
ENDCHAR
STARTCHAR char50
ENCODING 50
SWIDTH 576 0
DWIDTH 6 0
BBX 6 13 0 -2
BITMAP
00
00
00
F0
10
F0
80
80
80
F0
00
00
00
ENDCHAR
STARTCHAR char51
ENCODING 51
SWIDTH 576 0
DWIDTH 6 0
BBX 6 13 0 -2
BITMAP
00
00
00
F0
10
F0
10
10
10
F0
00
00
00
ENDCHAR
STARTCHAR char52
ENCODING 52
SWIDTH 576 0
DWIDTH 6 0
BBX 6 13 0 -2
BITMAP
00
00
00
90
90
F0
10
10
10
10
00
00
00
ENDCHAR
STARTCHAR char53
ENCODING 53
SWIDTH 576 0
DWIDTH 6 0
BBX 6 13 0 -2
BITMAP
00
00
00
F0
80
F0
10
10
10
F0
00
00
00
ENDCHAR
STARTCHAR char54
ENCODING 54
SWIDTH 576 0
DWIDTH 6 0
BBX 6 13 0 -2
BITMAP
00
00
00
F0
80
F0
90
90
90
F0
00
00
00
ENDCHAR
STARTCHAR char55
ENCODING 55
SWIDTH 576 0
DWIDTH 6 0
BBX 6 13 0 -2
BITMAP
00
00
00
F0
10
10
10
10
10
10
00
00
00
ENDCHAR
STARTCHAR char56
ENCODING 56
SWIDTH 576 0
DWIDTH 6 0
BBX 6 13 0 -2
BITMAP
00
00
00
F0
90
F0
90
90
90
F0
00
00
00
ENDCHAR
STARTCHAR char57
ENCODING 57
SWIDTH 576 0
DWIDTH 6 0
BBX 6 13 0 -2
BITMAP
00
00
00
F0
90
F0
10
10
10
10
00
00
00
ENDCHAR
STARTCHAR char58
ENCODING 58
SWIDTH 576 0
DWIDTH 6 0
BBX 6 13 0 -2
BITMAP
00
00
00
00
00
40
40
00
40
40
00
00
00
ENDCHAR
STARTCHAR char59
ENCODING 59
SWIDTH 576 0
DWIDTH 6 0
BBX 6 13 0 -2
BITMAP
00
00
00
00
00
40
40
00
40
80
00
00
00
ENDCHAR
STARTCHAR char60
ENCODING 60
SWIDTH 576 0
DWIDTH 6 0
BBX 6 13 0 -2
BITMAP
00
00
00
10
20
40
80
40
20
10
00
00
00
ENDCHAR
STARTCHAR char61
ENCODING 61
SWIDTH 576 0
DWIDTH 6 0
BBX 6 13 0 -2
BITMAP
00
00
00
00
00
F0
00
F0
00
00
00
00
00
ENDCHAR
STARTCHAR char62
ENCODING 62
SWIDTH 576 0
DWIDTH 6 0
BBX 6 13 0 -2
BITMAP
00
00
00
80
40
20
10
20
40
80
00
00
00
ENDCHAR
STARTCHAR char63
ENCODING 63
SWIDTH 576 0
DWIDTH 6 0
BBX 6 13 0 -2
BITMAP
00
00
00
F0
10
70
40
00
40
40
00
00
00
ENDCHAR
STARTCHAR char64
ENCODING 64
SWIDTH 576 0
DWIDTH 6 0
BBX 6 13 0 -2
BITMAP
00
00
F0
90
90
D0
D0
10
90
F0
00
00
00
ENDCHAR
STARTCHAR char65
ENCODING 65
SWIDTH 576 0
DWIDTH 6 0
BBX 6 13 0 -2
BITMAP
00
00
00
F0
90
F0
90
90
90
90
00
00
00
ENDCHAR
STARTCHAR char66
ENCODING 66
SWIDTH 576 0
DWIDTH 6 0
BBX 6 13 0 -2
BITMAP
00
00
00
F0
90
E0
90
90
90
F0
00
00
00
ENDCHAR
STARTCHAR char67
ENCODING 67
SWIDTH 576 0
DWIDTH 6 0
BBX 6 13 0 -2
BITMAP
00
00
00
F0
80
80
80
80
80
F0
00
00
00
ENDCHAR
STARTCHAR char68
ENCODING 68
SWIDTH 576 0
DWIDTH 6 0
BBX 6 13 0 -2
BITMAP
00
00
00
E0
90
90
90
90
90
E0
00
00
00
ENDCHAR
STARTCHAR char69
ENCODING 69
SWIDTH 576 0
DWIDTH 6 0
BBX 6 13 0 -2
BITMAP
00
00
00
F0
80
F0
80
80
80
F0
00
00
00
ENDCHAR
STARTCHAR char70
ENCODING 70
SWIDTH 576 0
DWIDTH 6 0
BBX 6 13 0 -2
BITMAP
00
00
00
F0
80
F0
80
80
80
80
00
00
00
ENDCHAR
STARTCHAR char71
ENCODING 71
SWIDTH 576 0
DWIDTH 6 0
BBX 6 13 0 -2
BITMAP
00
00
00
F0
80
B0
90
90
90
F0
00
00
00
ENDCHAR
STARTCHAR char72
ENCODING 72
SWIDTH 576 0
DWIDTH 6 0
BBX 6 13 0 -2
BITMAP
00
00
00
90
90
F0
90
90
90
90
00
00
00
ENDCHAR
STARTCHAR char73
ENCODING 73
SWIDTH 576 0
DWIDTH 6 0
BBX 6 13 0 -2
BITMAP
00
00
00
E0
40
40
40
40
40
E0
00
00
00
ENDCHAR
STARTCHAR char74
ENCODING 74
SWIDTH 576 0
DWIDTH 6 0
BBX 6 13 0 -2
BITMAP
00
00
00
10
10
10
10
90
90
F0
00
00
00
ENDCHAR
STARTCHAR char75
ENCODING 75
SWIDTH 576 0
DWIDTH 6 0
BBX 6 13 0 -2
BITMAP
00
00
00
90
90
E0
90
90
90
90
00
00
00
ENDCHAR
STARTCHAR char76
ENCODING 76
SWIDTH 576 0
DWIDTH 6 0
BBX 6 13 0 -2
BITMAP
00
00
00
80
80
80
80
80
80
F0
00
00
00
ENDCHAR
STARTCHAR char77
ENCODING 77
SWIDTH 576 0
DWIDTH 6 0
BBX 6 13 0 -2
BITMAP
00
00
00
90
F0
B0
90
90
90
90
00
00
00
ENDCHAR
STARTCHAR char78
ENCODING 78
SWIDTH 576 0
DWIDTH 6 0
BBX 6 13 0 -2
BITMAP
00
00
00
F0
90
90
90
90
90
90
00
00
00
ENDCHAR
STARTCHAR char79
ENCODING 79
SWIDTH 576 0
DWIDTH 6 0
BBX 6 13 0 -2
BITMAP
00
00
00
F0
90
90
90
90
90
F0
00
00
00
ENDCHAR
STARTCHAR char80
ENCODING 80
SWIDTH 576 0
DWIDTH 6 0
BBX 6 13 0 -2
BITMAP
00
00
00
F0
90
F0
80
80
80
80
00
00
00
ENDCHAR
STARTCHAR char81
ENCODING 81
SWIDTH 576 0
DWIDTH 6 0
BBX 6 13 0 -2
BITMAP
00
00
00
F0
90
90
90
D0
B0
F0
08
00
00
ENDCHAR
STARTCHAR char82
ENCODING 82
SWIDTH 576 0
DWIDTH 6 0
BBX 6 13 0 -2
BITMAP
00
00
00
F0
90
E0
90
90
90
90
00
00
00
ENDCHAR
STARTCHAR char83
ENCODING 83
SWIDTH 576 0
DWIDTH 6 0
BBX 6 13 0 -2
BITMAP
00
00
00
F0
80
F0
10
10
10
F0
00
00
00
ENDCHAR
STARTCHAR char84
ENCODING 84
SWIDTH 576 0
DWIDTH 6 0
BBX 6 13 0 -2
BITMAP
00
00
00
F0
20
20
20
20
20
20
00
00
00
ENDCHAR
STARTCHAR char85
ENCODING 85
SWIDTH 576 0
DWIDTH 6 0
BBX 6 13 0 -2
BITMAP
00
00
00
90
90
90
90
90
90
F0
00
00
00
ENDCHAR
STARTCHAR char86
ENCODING 86
SWIDTH 576 0
DWIDTH 6 0
BBX 6 13 0 -2
BITMAP
00
00
00
90
90
90
90
A0
C0
80
00
00
00
ENDCHAR
STARTCHAR char87
ENCODING 87
SWIDTH 576 0
DWIDTH 6 0
BBX 6 13 0 -2
BITMAP
00
00
00
90
90
90
D0
F0
F0
90
00
00
00
ENDCHAR
STARTCHAR char88
ENCODING 88
SWIDTH 576 0
DWIDTH 6 0
BBX 6 13 0 -2
BITMAP
00
00
00
90
90
60
90
90
90
90
00
00
00
ENDCHAR
STARTCHAR char89
ENCODING 89
SWIDTH 576 0
DWIDTH 6 0
BBX 6 13 0 -2
BITMAP
00
00
00
90
90
F0
10
10
10
F0
00
00
00
ENDCHAR
STARTCHAR char90
ENCODING 90
SWIDTH 576 0
DWIDTH 6 0
BBX 6 13 0 -2
BITMAP
00
00
00
F0
10
20
40
80
80
F0
00
00
00
ENDCHAR
STARTCHAR char91
ENCODING 91
SWIDTH 576 0
DWIDTH 6 0
BBX 6 13 0 -2
BITMAP
00
00
F0
80
80
80
80
80
80
80
F0
00
00
ENDCHAR
STARTCHAR char92
ENCODING 92
SWIDTH 576 0
DWIDTH 6 0
BBX 6 13 0 -2
BITMAP
00
00
00
40
40
20
20
10
10
08
08
00
00
ENDCHAR
STARTCHAR char93
ENCODING 93
SWIDTH 576 0
DWIDTH 6 0
BBX 6 13 0 -2
BITMAP
00
00
F0
10
10
10
10
10
10
10
F0
00
00
ENDCHAR
STARTCHAR char94
ENCODING 94
SWIDTH 576 0
DWIDTH 6 0
BBX 6 13 0 -2
BITMAP
00
00
40
A0
00
00
00
00
00
00
00
00
00
ENDCHAR
STARTCHAR char95
ENCODING 95
SWIDTH 576 0
DWIDTH 6 0
BBX 6 13 0 -2
BITMAP
00
00
00
00
00
00
00
00
00
00
F8
00
00
ENDCHAR
STARTCHAR char96
ENCODING 96
SWIDTH 576 0
DWIDTH 6 0
BBX 6 13 0 -2
BITMAP
00
00
00
80
40
00
00
00
00
00
00
00
00
ENDCHAR
STARTCHAR char97
ENCODING 97
SWIDTH 576 0
DWIDTH 6 0
BBX 6 13 0 -2
BITMAP
00
00
00
00
00
F0
10
F0
90
F0
00
00
00
ENDCHAR
STARTCHAR char98
ENCODING 98
SWIDTH 576 0
DWIDTH 6 0
BBX 6 13 0 -2
BITMAP
00
00
00
80
80
F0
90
90
90
F0
00
00
00
ENDCHAR
STARTCHAR char99
ENCODING 99
SWIDTH 576 0
DWIDTH 6 0
BBX 6 13 0 -2
BITMAP
00
00
00
00
00
F0
80
80
80
F0
00
00
00
ENDCHAR
STARTCHAR char100
ENCODING 100
SWIDTH 576 0
DWIDTH 6 0
BBX 6 13 0 -2
BITMAP
00
00
00
10
10
F0
90
90
90
F0
00
00
00
ENDCHAR
STARTCHAR char101
ENCODING 101
SWIDTH 576 0
DWIDTH 6 0
BBX 6 13 0 -2
BITMAP
00
00
00
00
00
F0
90
F0
80
F0
00
00
00
ENDCHAR
STARTCHAR char102
ENCODING 102
SWIDTH 576 0
DWIDTH 6 0
BBX 6 13 0 -2
BITMAP
00
00
00
60
40
E0
40
40
40
40
00
00
00
ENDCHAR
STARTCHAR char103
ENCODING 103
SWIDTH 576 0
DWIDTH 6 0
BBX 6 13 0 -2
BITMAP
00
00
00
00
00
F0
90
90
F0
10
F0
00
00
ENDCHAR
STARTCHAR char104
ENCODING 104
SWIDTH 576 0
DWIDTH 6 0
BBX 6 13 0 -2
BITMAP
00
00
00
80
80
F0
90
90
90
90
00
00
00
ENDCHAR
STARTCHAR char105
ENCODING 105
SWIDTH 576 0
DWIDTH 6 0
BBX 6 13 0 -2
BITMAP
00
00
00
20
00
20
20
20
20
20
00
00
00
ENDCHAR
STARTCHAR char106
ENCODING 106
SWIDTH 576 0
DWIDTH 6 0
BBX 6 13 0 -2
BITMAP
00
00
00
20
00
20
20
20
20
20
E0
00
00
ENDCHAR
STARTCHAR char107
ENCODING 107
SWIDTH 576 0
DWIDTH 6 0
BBX 6 13 0 -2
BITMAP
00
00
00
80
80
90
E0
90
90
90
00
00
00
ENDCHAR
STARTCHAR char108
ENCODING 108
SWIDTH 576 0
DWIDTH 6 0
BBX 6 13 0 -2
BITMAP
00
00
00
20
20
20
20
20
20
20
00
00
00
ENDCHAR
STARTCHAR char109
ENCODING 109
SWIDTH 576 0
DWIDTH 6 0
BBX 6 13 0 -2
BITMAP
00
00
00
00
00
90
F0
B0
90
90
00
00
00
ENDCHAR
STARTCHAR char110
ENCODING 110
SWIDTH 576 0
DWIDTH 6 0
BBX 6 13 0 -2
BITMAP
00
00
00
00
00
F0
90
90
90
90
00
00
00
ENDCHAR
STARTCHAR char111
ENCODING 111
SWIDTH 576 0
DWIDTH 6 0
BBX 6 13 0 -2
BITMAP
00
00
00
00
00
F0
90
90
90
F0
00
00
00
ENDCHAR
STARTCHAR char112
ENCODING 112
SWIDTH 576 0
DWIDTH 6 0
BBX 6 13 0 -2
BITMAP
00
00
00
00
00
F0
90
90
F0
80
80
00
00
ENDCHAR
STARTCHAR char113
ENCODING 113
SWIDTH 576 0
DWIDTH 6 0
BBX 6 13 0 -2
BITMAP
00
00
00
00
00
F0
90
90
F0
10
10
00
00
ENDCHAR
STARTCHAR char114
ENCODING 114
SWIDTH 576 0
DWIDTH 6 0
BBX 6 13 0 -2
BITMAP
00
00
00
00
00
F0
80
80
80
80
00
00
00
ENDCHAR
STARTCHAR char115
ENCODING 115
SWIDTH 576 0
DWIDTH 6 0
BBX 6 13 0 -2
BITMAP
00
00
00
00
00
F0
80
F0
10
F0
00
00
00
ENDCHAR
STARTCHAR char116
ENCODING 116
SWIDTH 576 0
DWIDTH 6 0
BBX 6 13 0 -2
BITMAP
00
00
00
40
40
E0
40
40
40
40
00
00
00
ENDCHAR
STARTCHAR char117
ENCODING 117
SWIDTH 576 0
DWIDTH 6 0
BBX 6 13 0 -2
BITMAP
00
00
00
00
00
90
90
90
90
F0
00
00
00
ENDCHAR
STARTCHAR char118
ENCODING 118
SWIDTH 576 0
DWIDTH 6 0
BBX 6 13 0 -2
BITMAP
00
00
00
00
00
90
90
A0
C0
80
00
00
00
ENDCHAR
STARTCHAR char119
ENCODING 119
SWIDTH 576 0
DWIDTH 6 0
BBX 6 13 0 -2
BITMAP
00
00
00
00
00
90
90
B0
F0
90
00
00
00
ENDCHAR
STARTCHAR char120
ENCODING 120
SWIDTH 576 0
DWIDTH 6 0
BBX 6 13 0 -2
BITMAP
00
00
00
00
00
90
90
60
90
90
00
00
00
ENDCHAR
STARTCHAR char121
ENCODING 121
SWIDTH 576 0
DWIDTH 6 0
BBX 6 13 0 -2
BITMAP
00
00
00
00
00
90
90
90
F0
10
F0
00
00
ENDCHAR
STARTCHAR char122
ENCODING 122
SWIDTH 576 0
DWIDTH 6 0
BBX 6 13 0 -2
BITMAP
00
00
00
00
00
F0
20
40
80
F0
00
00
00
ENDCHAR
STARTCHAR char123
ENCODING 123
SWIDTH 576 0
DWIDTH 6 0
BBX 6 13 0 -2
BITMAP
00
00
70
40
40
40
80
40
40
40
70
00
00
ENDCHAR
STARTCHAR char124
ENCODING 124
SWIDTH 576 0
DWIDTH 6 0
BBX 6 13 0 -2
BITMAP
00
00
20
20
20
20
20
20
20
20
20
00
00
ENDCHAR
STARTCHAR char125
ENCODING 125
SWIDTH 576 0
DWIDTH 6 0
BBX 6 13 0 -2
BITMAP
00
00
E0
20
20
20
10
20
20
20
E0
00
00
ENDCHAR
STARTCHAR char126
ENCODING 126
SWIDTH 576 0
DWIDTH 6 0
BBX 6 13 0 -2
BITMAP
00
00
50
A0
00
00
00
00
00
00
00
00
00
ENDCHAR
STARTCHAR char127
ENCODING 127
SWIDTH 576 0
DWIDTH 6 0
BBX 6 13 0 -2
BITMAP
00
00
00
60
60
60
90
90
90
90
F0
00
00
ENDCHAR
STARTCHAR char128
ENCODING 128
SWIDTH 576 0
DWIDTH 6 0
BBX 6 13 0 -2
BITMAP
00
00
30
48
B0
A8
A0
A0
A0
E0
00
00
00
ENDCHAR
STARTCHAR char129
ENCODING 129
SWIDTH 576 0
DWIDTH 6 0
BBX 6 13 0 -2
BITMAP
00
00
08
08
88
48
A8
58
20
18
00
00
00
ENDCHAR
STARTCHAR char130
ENCODING 130
SWIDTH 576 0
DWIDTH 6 0
BBX 6 13 0 -2
BITMAP
00
00
C0
40
40
40
40
40
80
00
00
00
00
ENDCHAR
STARTCHAR char131
ENCODING 131
SWIDTH 576 0
DWIDTH 6 0
BBX 6 13 0 -2
BITMAP
00
00
38
40
B8
80
B8
B8
40
38
00
00
00
ENDCHAR
STARTCHAR char132
ENCODING 132
SWIDTH 576 0
DWIDTH 6 0
BBX 6 13 0 -2
BITMAP
00
00
F8
00
F8
20
E0
F8
00
F8
00
00
00
ENDCHAR
STARTCHAR char133
ENCODING 133
SWIDTH 576 0
DWIDTH 6 0
BBX 6 13 0 -2
BITMAP
00
00
C0
40
C0
00
00
C0
40
C0
00
00
00
ENDCHAR
STARTCHAR char134
ENCODING 134
SWIDTH 576 0
DWIDTH 6 0
BBX 6 13 0 -2
BITMAP
00
00
E0
B8
40
38
38
40
B8
E0
00
00
00
ENDCHAR
STARTCHAR char135
ENCODING 135
SWIDTH 576 0
DWIDTH 6 0
BBX 6 13 0 -2
BITMAP
00
00
00
00
F8
00
00
F8
00
00
00
00
00
ENDCHAR
STARTCHAR char136
ENCODING 136
SWIDTH 576 0
DWIDTH 6 0
BBX 6 13 0 -2
BITMAP
00
00
18
70
88
70
70
88
70
18
00
00
00
ENDCHAR
STARTCHAR char137
ENCODING 137
SWIDTH 576 0
DWIDTH 6 0
BBX 6 13 0 -2
BITMAP
00
00
80
80
00
00
00
00
80
80
00
00
00
ENDCHAR
STARTCHAR char138
ENCODING 138
SWIDTH 576 0
DWIDTH 6 0
BBX 6 13 0 -2
BITMAP
00
00
E0
A0
A0
A0
A0
B8
40
38
00
00
00
ENDCHAR
STARTCHAR char139
ENCODING 139
SWIDTH 576 0
DWIDTH 6 0
BBX 6 13 0 -2
BITMAP
00
00
08
08
08
08
08
F8
00
F8
00
00
00
ENDCHAR
STARTCHAR char140
ENCODING 140
SWIDTH 576 0
DWIDTH 6 0
BBX 6 13 0 -2
BITMAP
00
00
C0
40
40
40
40
40
80
00
00
00
00
ENDCHAR
STARTCHAR char141
ENCODING 141
SWIDTH 576 0
DWIDTH 6 0
BBX 6 13 0 -2
BITMAP
00
00
78
80
B8
80
78
F8
80
F8
00
00
00
ENDCHAR
STARTCHAR char142
ENCODING 142
SWIDTH 576 0
DWIDTH 6 0
BBX 6 13 0 -2
BITMAP
00
00
F8
00
F8
00
F8
F8
00
F8
00
00
00
ENDCHAR
STARTCHAR char143
ENCODING 143
SWIDTH 576 0
DWIDTH 6 0
BBX 6 13 0 -2
BITMAP
00
00
C0
40
C0
80
40
40
40
80
00
00
00
ENDCHAR
STARTCHAR char144
ENCODING 144
SWIDTH 576 0
DWIDTH 6 0
BBX 6 13 0 -2
BITMAP
00
00
20
70
70
60
68
60
F8
F8
68
00
00
ENDCHAR
STARTCHAR char145
ENCODING 145
SWIDTH 576 0
DWIDTH 6 0
BBX 6 13 0 -2
BITMAP
00
00
C0
18
D8
D0
90
40
F0
C0
80
00
00
ENDCHAR
STARTCHAR char146
ENCODING 146
SWIDTH 576 0
DWIDTH 6 0
BBX 6 13 0 -2
BITMAP
00
18
08
20
A8
B8
B0
00
08
18
00
00
00
ENDCHAR
STARTCHAR char147
ENCODING 147
SWIDTH 576 0
DWIDTH 6 0
BBX 6 13 0 -2
BITMAP
00
08
D8
F0
70
70
F8
D8
D8
00
00
00
00
ENDCHAR
STARTCHAR char148
ENCODING 148
SWIDTH 576 0
DWIDTH 6 0
BBX 6 13 0 -2
BITMAP
00
F8
88
88
88
88
88
88
88
88
F8
00
00
ENDCHAR
STARTCHAR char149
ENCODING 149
SWIDTH 576 0
DWIDTH 6 0
BBX 6 13 0 -2
BITMAP
00
F8
88
88
88
88
88
88
88
88
F8
00
00
ENDCHAR
STARTCHAR char150
ENCODING 150
SWIDTH 576 0
DWIDTH 6 0
BBX 6 13 0 -2
BITMAP
00
F8
88
88
88
88
88
88
88
88
F8
00
00
ENDCHAR
STARTCHAR char151
ENCODING 151
SWIDTH 576 0
DWIDTH 6 0
BBX 6 13 0 -2
BITMAP
00
F8
88
88
88
88
88
88
88
88
F8
00
00
ENDCHAR
STARTCHAR char152
ENCODING 152
SWIDTH 576 0
DWIDTH 6 0
BBX 6 13 0 -2
BITMAP
00
F8
88
88
88
88
88
88
88
88
F8
00
00
ENDCHAR
STARTCHAR char153
ENCODING 153
SWIDTH 576 0
DWIDTH 6 0
BBX 6 13 0 -2
BITMAP
00
F8
88
88
88
88
88
88
88
88
F8
00
00
ENDCHAR
STARTCHAR char154
ENCODING 154
SWIDTH 576 0
DWIDTH 6 0
BBX 6 13 0 -2
BITMAP
00
F8
88
88
88
88
88
88
88
88
F8
00
00
ENDCHAR
STARTCHAR char155
ENCODING 155
SWIDTH 576 0
DWIDTH 6 0
BBX 6 13 0 -2
BITMAP
00
00
00
20
F0
80
80
80
F0
20
00
00
00
ENDCHAR
STARTCHAR char156
ENCODING 156
SWIDTH 576 0
DWIDTH 6 0
BBX 6 13 0 -2
BITMAP
00
00
00
70
50
40
60
40
40
F0
00
00
00
ENDCHAR
STARTCHAR char157
ENCODING 157
SWIDTH 576 0
DWIDTH 6 0
BBX 6 13 0 -2
BITMAP
00
00
A0
A0
A0
40
E0
40
E0
40
00
00
00
ENDCHAR
STARTCHAR char158
ENCODING 158
SWIDTH 576 0
DWIDTH 6 0
BBX 6 13 0 -2
BITMAP
00
F8
88
88
88
88
88
88
88
88
F8
00
00
ENDCHAR
STARTCHAR char159
ENCODING 159
SWIDTH 576 0
DWIDTH 6 0
BBX 6 13 0 -2
BITMAP
00
00
00
60
40
40
E0
40
40
C0
00
00
00
ENDCHAR
STARTCHAR nobreakspace
ENCODING 160
SWIDTH 576 0
DWIDTH 6 0
BBX 6 13 0 -2
BITMAP
00
00
00
00
00
00
00
00
00
00
00
00
00
ENDCHAR
STARTCHAR char33
ENCODING 161
SWIDTH 576 0
DWIDTH 6 0
BBX 6 13 0 -2
BITMAP
00
00
40
40
00
40
40
40
40
40
00
00
00
ENDCHAR
STARTCHAR char155
ENCODING 162
SWIDTH 576 0
DWIDTH 6 0
BBX 6 13 0 -2
BITMAP
00
00
00
20
F0
80
80
80
F0
20
00
00
00
ENDCHAR
STARTCHAR char156
ENCODING 163
SWIDTH 576 0
DWIDTH 6 0
BBX 6 13 0 -2
BITMAP
00
00
00
70
50
40
60
40
40
F0
00
00
00
ENDCHAR
STARTCHAR currency
ENCODING 164
SWIDTH 576 0
DWIDTH 6 0
BBX 6 13 0 -2
BITMAP
00
00
44
38
28
28
38
44
00
00
00
00
00
ENDCHAR
STARTCHAR yen
ENCODING 165
SWIDTH 576 0
DWIDTH 6 0
BBX 6 13 0 -2
BITMAP
48
28
10
10
38
10
38
10
00
00
00
00
00
ENDCHAR
STARTCHAR bar
ENCODING 166
SWIDTH 576 0
DWIDTH 6 0
BBX 6 13 0 -2
BITMAP
00
00
00
20
20
20
00
20
20
20
00
00
00
ENDCHAR
STARTCHAR char159
ENCODING 167
SWIDTH 576 0
DWIDTH 6 0
BBX 6 13 0 -2
BITMAP
00
00
00
60
40
40
E0
40
40
C0
00
00
00
ENDCHAR
STARTCHAR diaeresis
ENCODING 168
SWIDTH 576 0
DWIDTH 6 0
BBX 6 13 0 -2
BITMAP
6C
00
00
00
00
00
00
00
00
00
00
00
00
ENDCHAR
STARTCHAR copyright
ENCODING 169
SWIDTH 576 0
DWIDTH 6 0
BBX 6 13 0 -2
BITMAP
00
FC
84
B4
A4
A4
A4
B4
84
FC
00
00
00
ENDCHAR
STARTCHAR char166
ENCODING 170
SWIDTH 576 0
DWIDTH 6 0
BBX 6 13 0 -2
BITMAP
00
00
00
60
A0
E0
00
E0
00
00
00
00
00
ENDCHAR
STARTCHAR guillemotleft
ENCODING 171
SWIDTH 576 0
DWIDTH 6 0
BBX 6 13 0 -2
BITMAP
00
00
00
28
50
28
00
00
00
00
00
00
00
ENDCHAR
STARTCHAR notsign
ENCODING 172
SWIDTH 576 0
DWIDTH 6 0
BBX 6 13 0 -2
BITMAP
00
78
08
00
00
00
00
00
00
00
00
00
00
ENDCHAR
STARTCHAR hyphen
ENCODING 173
SWIDTH 576 0
DWIDTH 6 0
BBX 6 13 0 -2
BITMAP
00
00
00
00
7C
00
00
00
00
00
00
00
00
ENDCHAR
STARTCHAR copyright
ENCODING 174
SWIDTH 576 0
DWIDTH 6 0
BBX 6 13 0 -2
BITMAP
00
FC
84
BC
AC
BC
B4
AC
84
FC
00
00
00
ENDCHAR
STARTCHAR macron
ENCODING 175
SWIDTH 576 0
DWIDTH 6 0
BBX 6 13 0 -2
BITMAP
7C
00
00
00
00
00
00
00
00
00
00
00
00
ENDCHAR
STARTCHAR degree
ENCODING 176
SWIDTH 576 0
DWIDTH 6 0
BBX 6 13 0 -2
BITMAP
00
10
28
10
00
00
00
00
00
00
00
00
00
ENDCHAR
STARTCHAR plusminus
ENCODING 177
SWIDTH 576 0
DWIDTH 6 0
BBX 6 13 0 -2
BITMAP
00
10
38
10
00
38
00
00
00
00
00
00
00
ENDCHAR
STARTCHAR twosuperior
ENCODING 178
SWIDTH 576 0
DWIDTH 6 0
BBX 6 13 0 -2
BITMAP
00
00
00
70
10
70
40
70
00
00
00
00
00
ENDCHAR
STARTCHAR threesuperior
ENCODING 179
SWIDTH 576 0
DWIDTH 6 0
BBX 6 13 0 -2
BITMAP
00
00
00
70
10
30
10
70
00
00
00
00
00
ENDCHAR
STARTCHAR acute
ENCODING 180
SWIDTH 576 0
DWIDTH 6 0
BBX 6 13 0 -2
BITMAP
08
10
00
00
00
00
00
00
00
00
00
00
00
ENDCHAR
STARTCHAR mu
ENCODING 181
SWIDTH 576 0
DWIDTH 6 0
BBX 6 13 0 -2
BITMAP
00
00
28
28
28
28
28
30
20
40
00
00
00
ENDCHAR
STARTCHAR paragraph
ENCODING 182
SWIDTH 576 0
DWIDTH 6 0
BBX 6 13 0 -2
BITMAP
00
38
68
68
68
68
28
28
28
28
00
00
00
ENDCHAR
STARTCHAR periodcentered
ENCODING 183
SWIDTH 576 0
DWIDTH 6 0
BBX 6 13 0 -2
BITMAP
00
00
00
00
00
30
30
00
00
00
00
00
00
ENDCHAR
STARTCHAR cedilla
ENCODING 184
SWIDTH 576 0
DWIDTH 6 0
BBX 6 13 0 -2
BITMAP
00
00
00
00
00
00
00
20
40
00
00
00
00
ENDCHAR
STARTCHAR onesuperior
ENCODING 185
SWIDTH 576 0
DWIDTH 6 0
BBX 6 13 0 -2
BITMAP
00
00
00
60
20
20
70
00
00
00
00
00
00
ENDCHAR
STARTCHAR char167
ENCODING 186
SWIDTH 576 0
DWIDTH 6 0
BBX 6 13 0 -2
BITMAP
00
00
00
E0
A0
E0
00
E0
00
00
00
00
00
ENDCHAR
STARTCHAR guillemotright
ENCODING 187
SWIDTH 576 0
DWIDTH 6 0
BBX 6 13 0 -2
BITMAP
00
00
00
50
28
50
00
00
00
00
00
00
00
ENDCHAR
STARTCHAR onequarter
ENCODING 188
SWIDTH 576 0
DWIDTH 6 0
BBX 6 13 0 -2
BITMAP
00
40
40
40
00
F0
00
50
70
10
00
00
00
ENDCHAR
STARTCHAR char171
ENCODING 189
SWIDTH 576 0
DWIDTH 6 0
BBX 6 13 0 -2
BITMAP
00
80
80
90
A0
40
B0
10
20
30
00
00
00
ENDCHAR
STARTCHAR onequarter
ENCODING 190
SWIDTH 576 0
DWIDTH 6 0
BBX 6 13 0 -2
BITMAP
00
60
20
60
00
F0
00
50
70
10
00
00
00
ENDCHAR
STARTCHAR char63
ENCODING 191
SWIDTH 576 0
DWIDTH 6 0
BBX 6 13 0 -2
BITMAP
00
00
00
20
00
20
20
E0
80
F0
00
00
00
ENDCHAR
STARTCHAR char65
ENCODING 192
SWIDTH 576 0
DWIDTH 6 0
BBX 6 13 0 -2
BITMAP
00
00
C0
00
F0
90
F0
90
90
90
00
00
00
ENDCHAR
STARTCHAR char65
ENCODING 193
SWIDTH 576 0
DWIDTH 6 0
BBX 6 13 0 -2
BITMAP
00
00
30
00
F0
90
F0
90
90
90
00
00
00
ENDCHAR
STARTCHAR char65
ENCODING 194
SWIDTH 576 0
DWIDTH 6 0
BBX 6 13 0 -2
BITMAP
00
00
20
50
F0
90
F0
90
90
90
00
00
00
ENDCHAR
STARTCHAR char65
ENCODING 195
SWIDTH 576 0
DWIDTH 6 0
BBX 6 13 0 -2
BITMAP
00
00
50
A0
F0
90
F0
90
90
90
00
00
00
ENDCHAR
STARTCHAR char65
ENCODING 196
SWIDTH 576 0
DWIDTH 6 0
BBX 6 13 0 -2
BITMAP
00
00
50
00
F0
90
F0
90
90
90
00
00
00
ENDCHAR
STARTCHAR char65
ENCODING 197
SWIDTH 576 0
DWIDTH 6 0
BBX 6 13 0 -2
BITMAP
00
00
20
20
F0
90
F0
90
90
90
00
00
00
ENDCHAR
STARTCHAR AE
ENCODING 198
SWIDTH 576 0
DWIDTH 6 0
BBX 6 13 0 -2
BITMAP
00
00
00
F0
A0
F0
A0
A0
A0
B0
00
00
00
ENDCHAR
STARTCHAR char67
ENCODING 199
SWIDTH 576 0
DWIDTH 6 0
BBX 6 13 0 -2
BITMAP
00
00
00
F0
80
80
80
F0
20
60
00
00
00
ENDCHAR
STARTCHAR char69
ENCODING 200
SWIDTH 576 0
DWIDTH 6 0
BBX 6 13 0 -2
BITMAP
00
00
C0
00
F0
80
F0
80
80
F0
00
00
00
ENDCHAR
STARTCHAR char69
ENCODING 201
SWIDTH 576 0
DWIDTH 6 0
BBX 6 13 0 -2
BITMAP
00
00
30
00
F0
80
F0
80
80
F0
00
00
00
ENDCHAR
STARTCHAR char69
ENCODING 202
SWIDTH 576 0
DWIDTH 6 0
BBX 6 13 0 -2
BITMAP
00
00
20
50
F0
80
F0
80
80
F0
00
00
00
ENDCHAR
STARTCHAR char69
ENCODING 203
SWIDTH 576 0
DWIDTH 6 0
BBX 6 13 0 -2
BITMAP
00
00
50
00
F0
80
F0
80
80
F0
00
00
00
ENDCHAR
STARTCHAR char73
ENCODING 204
SWIDTH 576 0
DWIDTH 6 0
BBX 6 13 0 -2
BITMAP
00
00
C0
00
E0
40
40
40
40
E0
00
00
00
ENDCHAR
STARTCHAR char73
ENCODING 205
SWIDTH 576 0
DWIDTH 6 0
BBX 6 13 0 -2
BITMAP
00
00
60
00
E0
40
40
40
40
E0
00
00
00
ENDCHAR
STARTCHAR char73
ENCODING 206
SWIDTH 576 0
DWIDTH 6 0
BBX 6 13 0 -2
BITMAP
00
00
40
A0
E0
40
40
40
40
E0
00
00
00
ENDCHAR
STARTCHAR char73
ENCODING 207
SWIDTH 576 0
DWIDTH 6 0
BBX 6 13 0 -2
BITMAP
00
00
A0
00
E0
40
40
40
40
E0
00
00
00
ENDCHAR
STARTCHAR ETH
ENCODING 208
SWIDTH 576 0
DWIDTH 6 0
BBX 6 13 0 -2
BITMAP
40
60
50
48
68
48
48
70
00
00
00
00
00
ENDCHAR
STARTCHAR char78
ENCODING 209
SWIDTH 576 0
DWIDTH 6 0
BBX 6 13 0 -2
BITMAP
00
00
60
00
F0
90
90
90
90
90
00
00
00
ENDCHAR
STARTCHAR char79
ENCODING 210
SWIDTH 576 0
DWIDTH 6 0
BBX 6 13 0 -2
BITMAP
00
00
C0
00
F0
90
90
90
90
F0
00
00
00
ENDCHAR
STARTCHAR char79
ENCODING 211
SWIDTH 576 0
DWIDTH 6 0
BBX 6 13 0 -2
BITMAP
00
00
30
00
F0
90
90
90
90
F0
00
00
00
ENDCHAR
STARTCHAR char79
ENCODING 212
SWIDTH 576 0
DWIDTH 6 0
BBX 6 13 0 -2
BITMAP
00
00
20
50
F0
90
90
90
90
F0
00
00
00
ENDCHAR
STARTCHAR char79
ENCODING 213
SWIDTH 576 0
DWIDTH 6 0
BBX 6 13 0 -2
BITMAP
00
00
50
A0
F0
90
90
90
90
F0
00
00
00
ENDCHAR
STARTCHAR char79
ENCODING 214
SWIDTH 576 0
DWIDTH 6 0
BBX 6 13 0 -2
BITMAP
00
00
50
00
F0
90
90
90
90
F0
00
00
00
ENDCHAR
STARTCHAR char120
ENCODING 215
SWIDTH 576 0
DWIDTH 6 0
BBX 6 13 0 -2
BITMAP
00
00
00
00
90
90
60
90
90
00
00
00
00
ENDCHAR
STARTCHAR Ooblique
ENCODING 216
SWIDTH 576 0
DWIDTH 6 0
BBX 6 13 0 -2
BITMAP
00
30
48
48
78
48
48
30
00
00
00
00
00
ENDCHAR
STARTCHAR char85
ENCODING 217
SWIDTH 576 0
DWIDTH 6 0
BBX 6 13 0 -2
BITMAP
00
00
C0
00
90
90
90
90
90
F0
00
00
00
ENDCHAR
STARTCHAR char85
ENCODING 218
SWIDTH 576 0
DWIDTH 6 0
BBX 6 13 0 -2
BITMAP
00
00
30
00
90
90
90
90
90
F0
00
00
00
ENDCHAR
STARTCHAR char85
ENCODING 219
SWIDTH 576 0
DWIDTH 6 0
BBX 6 13 0 -2
BITMAP
00
00
20
50
90
90
90
90
90
F0
00
00
00
ENDCHAR
STARTCHAR char85
ENCODING 220
SWIDTH 576 0
DWIDTH 6 0
BBX 6 13 0 -2
BITMAP
00
00
50
00
90
90
90
90
90
F0
00
00
00
ENDCHAR
STARTCHAR Yacute
ENCODING 221
SWIDTH 576 0
DWIDTH 6 0
BBX 6 13 0 -2
BITMAP
18
00
48
48
28
18
08
08
00
00
00
00
00
ENDCHAR
STARTCHAR THORN
ENCODING 222
SWIDTH 576 0
DWIDTH 6 0
BBX 6 13 0 -2
BITMAP
40
40
70
48
48
70
40
40
00
00
00
00
00
ENDCHAR
STARTCHAR ssharp
ENCODING 223
SWIDTH 576 0
DWIDTH 6 0
BBX 6 13 0 -2
BITMAP
00
F0
88
F0
88
88
F8
80
80
80
00
00
00
ENDCHAR
STARTCHAR char97
ENCODING 224
SWIDTH 576 0
DWIDTH 6 0
BBX 6 13 0 -2
BITMAP
00
00
80
40
00
F0
10
F0
90
F0
00
00
00
ENDCHAR
STARTCHAR char97
ENCODING 225
SWIDTH 576 0
DWIDTH 6 0
BBX 6 13 0 -2
BITMAP
00
00
10
20
00
F0
10
F0
90
F0
00
00
00
ENDCHAR
STARTCHAR char97
ENCODING 226
SWIDTH 576 0
DWIDTH 6 0
BBX 6 13 0 -2
BITMAP
00
00
20
50
00
F0
10
F0
90
F0
00
00
00
ENDCHAR
STARTCHAR char97
ENCODING 227
SWIDTH 576 0
DWIDTH 6 0
BBX 6 13 0 -2
BITMAP
00
00
50
A0
00
F0
10
F0
90
F0
00
00
00
ENDCHAR
STARTCHAR char97
ENCODING 228
SWIDTH 576 0
DWIDTH 6 0
BBX 6 13 0 -2
BITMAP
00
00
00
50
00
F0
10
F0
90
F0
00
00
00
ENDCHAR
STARTCHAR char97
ENCODING 229
SWIDTH 576 0
DWIDTH 6 0
BBX 6 13 0 -2
BITMAP
00
00
20
50
20
F0
10
F0
90
F0
00
00
00
ENDCHAR
STARTCHAR char230
ENCODING 230
SWIDTH 576 0
DWIDTH 6 0
BBX 6 13 0 -2
BITMAP
00
00
00
50
50
50
50
50
60
40
80
00
00
ENDCHAR
STARTCHAR char99
ENCODING 231
SWIDTH 576 0
DWIDTH 6 0
BBX 6 13 0 -2
BITMAP
00
00
00
00
F0
80
80
F0
20
60
00
00
00
ENDCHAR
STARTCHAR char101
ENCODING 232
SWIDTH 576 0
DWIDTH 6 0
BBX 6 13 0 -2
BITMAP
00
00
80
40
00
F0
90
F0
80
F0
00
00
00
ENDCHAR
STARTCHAR char101
ENCODING 233
SWIDTH 576 0
DWIDTH 6 0
BBX 6 13 0 -2
BITMAP
00
00
10
20
00
F0
90
F0
80
F0
00
00
00
ENDCHAR
STARTCHAR char101
ENCODING 234
SWIDTH 576 0
DWIDTH 6 0
BBX 6 13 0 -2
BITMAP
00
00
20
50
00
F0
90
F0
80
F0
00
00
00
ENDCHAR
STARTCHAR char101
ENCODING 235
SWIDTH 576 0
DWIDTH 6 0
BBX 6 13 0 -2
BITMAP
00
00
00
50
00
F0
90
F0
80
F0
00
00
00
ENDCHAR
STARTCHAR char105
ENCODING 236
SWIDTH 576 0
DWIDTH 6 0
BBX 6 13 0 -2
BITMAP
00
00
40
20
00
20
20
20
20
20
00
00
00
ENDCHAR
STARTCHAR char105
ENCODING 237
SWIDTH 576 0
DWIDTH 6 0
BBX 6 13 0 -2
BITMAP
00
00
10
20
00
20
20
20
20
20
00
00
00
ENDCHAR
STARTCHAR char105
ENCODING 238
SWIDTH 576 0
DWIDTH 6 0
BBX 6 13 0 -2
BITMAP
00
00
20
50
00
20
20
20
20
20
00
00
00
ENDCHAR
STARTCHAR char105
ENCODING 239
SWIDTH 576 0
DWIDTH 6 0
BBX 6 13 0 -2
BITMAP
00
00
00
50
00
20
20
20
20
20
00
00
00
ENDCHAR
STARTCHAR char240
ENCODING 240
SWIDTH 576 0
DWIDTH 6 0
BBX 6 13 0 -2
BITMAP
00
00
00
F0
00
F0
00
F0
00
00
00
00
00
ENDCHAR
STARTCHAR char110
ENCODING 241
SWIDTH 576 0
DWIDTH 6 0
BBX 6 13 0 -2
BITMAP
00
00
00
60
00
F0
90
90
90
90
00
00
00
ENDCHAR
STARTCHAR char111
ENCODING 242
SWIDTH 576 0
DWIDTH 6 0
BBX 6 13 0 -2
BITMAP
00
00
80
40
00
F0
90
90
90
F0
00
00
00
ENDCHAR
STARTCHAR char111
ENCODING 243
SWIDTH 576 0
DWIDTH 6 0
BBX 6 13 0 -2
BITMAP
00
00
10
20
00
F0
90
90
90
F0
00
00
00
ENDCHAR
STARTCHAR char111
ENCODING 244
SWIDTH 576 0
DWIDTH 6 0
BBX 6 13 0 -2
BITMAP
00
00
20
50
00
F0
90
90
90
F0
00
00
00
ENDCHAR
STARTCHAR char111
ENCODING 245
SWIDTH 576 0
DWIDTH 6 0
BBX 6 13 0 -2
BITMAP
00
00
00
50
00
F0
90
90
90
F0
00
00
00
ENDCHAR
STARTCHAR char111
ENCODING 246
SWIDTH 576 0
DWIDTH 6 0
BBX 6 13 0 -2
BITMAP
00
00
80
40
00
F0
90
90
90
F0
00
00
00
ENDCHAR
STARTCHAR division
ENCODING 247
SWIDTH 576 0
DWIDTH 6 0
BBX 6 13 0 -2
BITMAP
00
00
20
00
00
70
00
00
20
00
00
00
00
ENDCHAR
STARTCHAR char248
ENCODING 248
SWIDTH 576 0
DWIDTH 6 0
BBX 6 13 0 -2
BITMAP
00
70
20
50
20
00
00
00
00
00
00
00
00
ENDCHAR
STARTCHAR char117
ENCODING 249
SWIDTH 576 0
DWIDTH 6 0
BBX 6 13 0 -2
BITMAP
00
00
80
40
00
90
90
90
90
F0
00
00
00
ENDCHAR
STARTCHAR char117
ENCODING 250
SWIDTH 576 0
DWIDTH 6 0
BBX 6 13 0 -2
BITMAP
00
00
10
20
00
90
90
90
90
F0
00
00
00
ENDCHAR
STARTCHAR char117
ENCODING 251
SWIDTH 576 0
DWIDTH 6 0
BBX 6 13 0 -2
BITMAP
00
00
20
50
00
90
90
90
90
F0
00
00
00
ENDCHAR
STARTCHAR char117
ENCODING 252
SWIDTH 576 0
DWIDTH 6 0
BBX 6 13 0 -2
BITMAP
00
00
00
50
00
90
90
90
90
F0
00
00
00
ENDCHAR
STARTCHAR char121
ENCODING 253
SWIDTH 576 0
DWIDTH 6 0
BBX 6 13 0 -2
BITMAP
00
00
10
20
00
90
90
90
F0
10
F0
00
00
ENDCHAR
STARTCHAR char254
ENCODING 254
SWIDTH 576 0
DWIDTH 6 0
BBX 6 13 0 -2
BITMAP
00
00
00
00
00
E0
E0
E0
E0
00
00
00
00
ENDCHAR
STARTCHAR char121
ENCODING 255
SWIDTH 576 0
DWIDTH 6 0
BBX 6 13 0 -2
BITMAP
00
00
00
50
00
90
90
90
F0
10
F0
00
00
ENDCHAR
ENDFONT
